<svg xmlns="http://www.w3.org/2000/svg" width="24" height="24" viewBox="0 0 24 24" fill="none" stroke="currentColor" stroke-width="1.75" stroke-linecap="round" stroke-linejoin="round" vector-effect="non-scaling-stroke" role="img" aria-label="phone">
<title>phone</title>
<path d="M6 9.5c0-2.45 2.7-4.25 6-4.25s6 1.8 6 4.25"/>
<path d="M8.4 9.5H5.9a1.4 1.4 0 0 0-1.4 1.4v1.35a1.4 1.4 0 0 0 1.4 1.4h2.5V9.5Z"/>
<path d="M15.6 9.5h2.5a1.4 1.4 0 0 1 1.4 1.4v1.35a1.4 1.4 0 0 1-1.4 1.4h-2.5V9.5Z"/>
<path d="M8.4 13.65c.55 2 1.78 3.1 3.6 3.1s3.05-1.1 3.6-3.1"/>
</svg>
